# xmcd CD database file
#
# Track frame offsets:
#	150
#	19050
#	38025
#	57675
#	80250
#	100575
#	119250
#	140400
#	161025
#	178500
#	201675
#	223275
#	247425
#	270525
#
# Disc length: 3986 seconds
#
# Revision: 1
# Processed by: cddbd v1.5.1PL2 Copyright (c) Steve Scherf et al.
# Submitted via: freeDBTagger 0.5
#
DISCID=d50f900e
DTITLE=星村麻衣 - Joyful
DYEAR=2006
DGENRE=blues
TTITLE0=Melodea
TTITLE1=Darlin
TTITLE2=EVERY
TTITLE3=Primacy
TTITLE4=Prelude
TTITLE5=素直になれない
TTITLE6=プラスティック・ラブ
TTITLE7=Merry Go Round
TTITLE8=ビリーヴァー
TTITLE9=ひまわり
TTITLE10=Remember
TTITLE11=Summer of Love
TTITLE12=Party Night
TTITLE13=LOVE SONG
EXTD=
EXTT0=
EXTT1=
EXTT2=
EXTT3=
EXTT4=
EXTT5=
EXTT6=
EXTT7=
EXTT8=
EXTT9=
EXTT10=
EXTT11=
EXTT12=
EXTT13=
PLAYORDER=
